<?xml version="1.0" encoding="us-ascii" standalone="no"?><svg xmlns="http://www.w3.org/2000/svg" xmlns:xlink="http://www.w3.org/1999/xlink" contentStyleType="text/css" height="1236px" preserveAspectRatio="none" style="width:963px;height:1236px;background:#FFFFFF;" version="1.1" viewBox="0 0 963 1236" width="963px" zoomAndPan="magnify"><defs/><g><!--class formrequests--><g id="elem_formrequests"><rect codeLine="4" fill="#F1F1F1" height="153.6563" id="formrequests" rx="2.5" ry="2.5" style="stroke:#181818;stroke-width:0.5;" width="160" x="7" y="7"/><ellipse cx="42.25" cy="23" fill="#ADD1B2" rx="11" ry="11" style="stroke:#181818;stroke-width:1.0;"/><path d="M45.0156,18.875 Q45.1719,18.6563 45.3594,18.5469 Q45.5469,18.4375 45.7656,18.4375 Q46.1406,18.4375 46.375,18.6953 Q46.6094,18.9531 46.6094,19.5625 L46.6094,21.0156 Q46.6094,21.625 46.375,21.8906 Q46.1406,22.1563 45.7656,22.1563 Q45.4219,22.1563 45.2188,21.9531 Q45.0156,21.7656 44.9063,21.25 Q44.8594,20.8906 44.6719,20.7031 Q44.3438,20.3281 43.7344,20.1094 Q43.125,19.8906 42.5,19.8906 Q41.7344,19.8906 41.1016,20.2188 Q40.4688,20.5469 39.9766,21.2969 Q39.4844,22.0469 39.4844,23.0781 L39.4844,24.1719 Q39.4844,25.4063 40.375,26.2266 Q41.2656,27.0469 42.8594,27.0469 Q43.7969,27.0469 44.4531,26.7969 Q44.8438,26.6406 45.2656,26.2031 Q45.5313,25.9375 45.6797,25.8594 Q45.8281,25.7813 46.0313,25.7813 Q46.3594,25.7813 46.6172,26.0391 Q46.875,26.2969 46.875,26.6406 Q46.875,26.9844 46.5313,27.3906 Q46.0313,27.9688 45.2344,28.2969 Q44.1563,28.75 42.8594,28.75 Q41.3438,28.75 40.1406,28.125 Q39.1563,27.625 38.4688,26.5547 Q37.7813,25.4844 37.7813,24.2031 L37.7813,23.0469 Q37.7813,21.7188 38.3984,20.5703 Q39.0156,19.4219 40.1094,18.8047 Q41.2031,18.1875 42.4375,18.1875 Q43.1719,18.1875 43.8203,18.3516 Q44.4688,18.5156 45.0156,18.875 Z " fill="#000000"/><text fill="#000000" font-family="sans-serif" font-size="14" lengthAdjust="spacing" textLength="83" x="60.75" y="28.7285">formrequests</text><line style="stroke:#181818;stroke-width:0.5;" x1="8" x2="166" y1="39" y2="39"/><rect fill="none" height="6" style="stroke:#C82930;stroke-width:1.0;" width="6" x="15" y="50.3047"/><text fill="#000000" font-family="sans-serif" font-size="14" lengthAdjust="spacing" textLength="46" x="27" y="57.5332">UUID id</text><rect fill="none" height="6" style="stroke:#C82930;stroke-width:1.0;" width="6" x="15" y="67.9141"/><text fill="#000000" font-family="sans-serif" font-size="14" lengthAdjust="spacing" textLength="113" x="27" y="75.1426">DateTime created</text><rect fill="none" height="6" style="stroke:#C82930;stroke-width:1.0;" width="6" x="15" y="85.5234"/><text fill="#000000" font-family="sans-serif" font-size="14" lengthAdjust="spacing" textLength="134" x="27" y="92.752">DateTime lastchange</text><rect fill="none" height="6" style="stroke:#C82930;stroke-width:1.0;" width="6" x="15" y="103.1328"/><text fill="#000000" font-family="sans-serif" font-size="14" lengthAdjust="spacing" textLength="76" x="27" y="110.3613">String name</text><rect fill="none" height="6" style="stroke:#C82930;stroke-width:1.0;" width="6" x="15" y="120.7422"/><text fill="#000000" font-family="sans-serif" font-size="14" lengthAdjust="spacing" textLength="101" x="27" y="127.9707">UUID rbacobject</text><rect fill="none" height="6" style="stroke:#C82930;stroke-width:1.0;" width="6" x="15" y="138.3516"/><text fill="#000000" font-family="sans-serif" font-size="14" lengthAdjust="spacing" textLength="85" x="27" y="145.5801">UUID state_id</text><line style="stroke:#181818;stroke-width:0.5;" x1="8" x2="166" y1="152.6563" y2="152.6563"/></g><!--class formhistories--><g id="elem_formhistories"><rect codeLine="13" fill="#F1F1F1" height="153.6563" id="formhistories" rx="2.5" ry="2.5" style="stroke:#181818;stroke-width:0.5;" width="160" x="7" y="239"/><ellipse cx="43.15" cy="255" fill="#ADD1B2" rx="11" ry="11" style="stroke:#181818;stroke-width:1.0;"/><path d="M45.9156,250.875 Q46.0719,250.6563 46.2594,250.5469 Q46.4469,250.4375 46.6656,250.4375 Q47.0406,250.4375 47.275,250.6953 Q47.5094,250.9531 47.5094,251.5625 L47.5094,253.0156 Q47.5094,253.625 47.275,253.8906 Q47.0406,254.1563 46.6656,254.1563 Q46.3219,254.1563 46.1188,253.9531 Q45.9156,253.7656 45.8063,253.25 Q45.7594,252.8906 45.5719,252.7031 Q45.2438,252.3281 44.6344,252.1094 Q44.025,251.8906 43.4,251.8906 Q42.6344,251.8906 42.0016,252.2188 Q41.3688,252.5469 40.8766,253.2969 Q40.3844,254.0469 40.3844,255.0781 L40.3844,256.1719 Q40.3844,257.4063 41.275,258.2266 Q42.1656,259.0469 43.7594,259.0469 Q44.6969,259.0469 45.3531,258.7969 Q45.7438,258.6406 46.1656,258.2031 Q46.4313,257.9375 46.5797,257.8594 Q46.7281,257.7813 46.9313,257.7813 Q47.2594,257.7813 47.5172,258.0391 Q47.775,258.2969 47.775,258.6406 Q47.775,258.9844 47.4313,259.3906 Q46.9313,259.9688 46.1344,260.2969 Q45.0563,260.75 43.7594,260.75 Q42.2438,260.75 41.0406,260.125 Q40.0563,259.625 39.3688,258.5547 Q38.6813,257.4844 38.6813,256.2031 L38.6813,255.0469 Q38.6813,253.7188 39.2984,252.5703 Q39.9156,251.4219 41.0094,250.8047 Q42.1031,250.1875 43.3375,250.1875 Q44.0719,250.1875 44.7203,250.3516 Q45.3688,250.5156 45.9156,250.875 Z " fill="#000000"/><text fill="#000000" font-family="sans-serif" font-size="14" lengthAdjust="spacing" textLength="81" x="61.85" y="260.7285">formhistories</text><line style="stroke:#181818;stroke-width:0.5;" x1="8" x2="166" y1="271" y2="271"/><rect fill="none" height="6" style="stroke:#C82930;stroke-width:1.0;" width="6" x="15" y="282.3047"/><text fill="#000000" font-family="sans-serif" font-size="14" lengthAdjust="spacing" textLength="46" x="27" y="289.5332">UUID id</text><rect fill="none" height="6" style="stroke:#C82930;stroke-width:1.0;" width="6" x="15" y="299.9141"/><text fill="#000000" font-family="sans-serif" font-size="14" lengthAdjust="spacing" textLength="113" x="27" y="307.1426">DateTime created</text><rect fill="none" height="6" style="stroke:#C82930;stroke-width:1.0;" width="6" x="15" y="317.5234"/><text fill="#000000" font-family="sans-serif" font-size="14" lengthAdjust="spacing" textLength="134" x="27" y="324.752">DateTime lastchange</text><rect fill="none" height="6" style="stroke:#C82930;stroke-width:1.0;" width="6" x="15" y="335.1328"/><text fill="#000000" font-family="sans-serif" font-size="14" lengthAdjust="spacing" textLength="76" x="27" y="342.3613">String name</text><rect fill="none" height="6" style="stroke:#C82930;stroke-width:1.0;" width="6" x="15" y="352.7422"/><text fill="#000000" font-family="sans-serif" font-size="14" lengthAdjust="spacing" textLength="102" x="27" y="359.9707">UUID request_id</text><rect fill="none" height="6" style="stroke:#C82930;stroke-width:1.0;" width="6" x="15" y="370.3516"/><text fill="#000000" font-family="sans-serif" font-size="14" lengthAdjust="spacing" textLength="82" x="27" y="377.5801">UUID form_id</text><line style="stroke:#181818;stroke-width:0.5;" x1="8" x2="166" y1="384.6563" y2="384.6563"/></g><!--class forms--><g id="elem_forms"><rect codeLine="22" fill="#F1F1F1" height="153.6563" id="forms" rx="2.5" ry="2.5" style="stroke:#181818;stroke-width:0.5;" width="160" x="367" y="239"/><ellipse cx="425.25" cy="255" fill="#ADD1B2" rx="11" ry="11" style="stroke:#181818;stroke-width:1.0;"/><path d="M428.0156,250.875 Q428.1719,250.6563 428.3594,250.5469 Q428.5469,250.4375 428.7656,250.4375 Q429.1406,250.4375 429.375,250.6953 Q429.6094,250.9531 429.6094,251.5625 L429.6094,253.0156 Q429.6094,253.625 429.375,253.8906 Q429.1406,254.1563 428.7656,254.1563 Q428.4219,254.1563 428.2188,253.9531 Q428.0156,253.7656 427.9063,253.25 Q427.8594,252.8906 427.6719,252.7031 Q427.3438,252.3281 426.7344,252.1094 Q426.125,251.8906 425.5,251.8906 Q424.7344,251.8906 424.1016,252.2188 Q423.4688,252.5469 422.9766,253.2969 Q422.4844,254.0469 422.4844,255.0781 L422.4844,256.1719 Q422.4844,257.4063 423.375,258.2266 Q424.2656,259.0469 425.8594,259.0469 Q426.7969,259.0469 427.4531,258.7969 Q427.8438,258.6406 428.2656,258.2031 Q428.5313,257.9375 428.6797,257.8594 Q428.8281,257.7813 429.0313,257.7813 Q429.3594,257.7813 429.6172,258.0391 Q429.875,258.2969 429.875,258.6406 Q429.875,258.9844 429.5313,259.3906 Q429.0313,259.9688 428.2344,260.2969 Q427.1563,260.75 425.8594,260.75 Q424.3438,260.75 423.1406,260.125 Q422.1563,259.625 421.4688,258.5547 Q420.7813,257.4844 420.7813,256.2031 L420.7813,255.0469 Q420.7813,253.7188 421.3984,252.5703 Q422.0156,251.4219 423.1094,250.8047 Q424.2031,250.1875 425.4375,250.1875 Q426.1719,250.1875 426.8203,250.3516 Q427.4688,250.5156 428.0156,250.875 Z " fill="#000000"/><text fill="#000000" font-family="sans-serif" font-size="14" lengthAdjust="spacing" textLength="35" x="445.75" y="260.7285">forms</text><line style="stroke:#181818;stroke-width:0.5;" x1="368" x2="526" y1="271" y2="271"/><rect fill="none" height="6" style="stroke:#C82930;stroke-width:1.0;" width="6" x="375" y="282.3047"/><text fill="#000000" font-family="sans-serif" font-size="14" lengthAdjust="spacing" textLength="46" x="387" y="289.5332">UUID id</text><rect fill="none" height="6" style="stroke:#C82930;stroke-width:1.0;" width="6" x="375" y="299.9141"/><text fill="#000000" font-family="sans-serif" font-size="14" lengthAdjust="spacing" textLength="113" x="387" y="307.1426">DateTime created</text><rect fill="none" height="6" style="stroke:#C82930;stroke-width:1.0;" width="6" x="375" y="317.5234"/><text fill="#000000" font-family="sans-serif" font-size="14" lengthAdjust="spacing" textLength="134" x="387" y="324.752">DateTime lastchange</text><rect fill="none" height="6" style="stroke:#C82930;stroke-width:1.0;" width="6" x="375" y="335.1328"/><text fill="#000000" font-family="sans-serif" font-size="14" lengthAdjust="spacing" textLength="76" x="387" y="342.3613">String name</text><rect fill="none" height="6" style="stroke:#C82930;stroke-width:1.0;" width="6" x="375" y="352.7422"/><text fill="#000000" font-family="sans-serif" font-size="14" lengthAdjust="spacing" textLength="101" x="387" y="359.9707">UUID rbacobject</text><rect fill="none" height="6" style="stroke:#C82930;stroke-width:1.0;" width="6" x="375" y="370.3516"/><text fill="#000000" font-family="sans-serif" font-size="14" lengthAdjust="spacing" textLength="85" x="387" y="377.5801">UUID state_id</text><line style="stroke:#181818;stroke-width:0.5;" x1="368" x2="526" y1="384.6563" y2="384.6563"/></g><!--class formtypes--><g id="elem_formtypes"><rect codeLine="37" fill="#F1F1F1" height="118.4375" id="formtypes" rx="2.5" ry="2.5" style="stroke:#181818;stroke-width:0.5;" width="135" x="694.5" y="257"/><ellipse cx="727.95" cy="273" fill="#ADD1B2" rx="11" ry="11" style="stroke:#181818;stroke-width:1.0;"/><path d="M730.7156,268.875 Q730.8719,268.6563 731.0594,268.5469 Q731.2469,268.4375 731.4656,268.4375 Q731.8406,268.4375 732.075,268.6953 Q732.3094,268.9531 732.3094,269.5625 L732.3094,271.0156 Q732.3094,271.625 732.075,271.8906 Q731.8406,272.1563 731.4656,272.1563 Q731.1219,272.1563 730.9188,271.9531 Q730.7156,271.7656 730.6063,271.25 Q730.5594,270.8906 730.3719,270.7031 Q730.0438,270.3281 729.4344,270.1094 Q728.825,269.8906 728.2,269.8906 Q727.4344,269.8906 726.8016,270.2188 Q726.1688,270.5469 725.6766,271.2969 Q725.1844,272.0469 725.1844,273.0781 L725.1844,274.1719 Q725.1844,275.4063 726.075,276.2266 Q726.9656,277.0469 728.5594,277.0469 Q729.4969,277.0469 730.1531,276.7969 Q730.5438,276.6406 730.9656,276.2031 Q731.2313,275.9375 731.3797,275.8594 Q731.5281,275.7813 731.7313,275.7813 Q732.0594,275.7813 732.3172,276.0391 Q732.575,276.2969 732.575,276.6406 Q732.575,276.9844 732.2313,277.3906 Q731.7313,277.9688 730.9344,278.2969 Q729.8563,278.75 728.5594,278.75 Q727.0438,278.75 725.8406,278.125 Q724.8563,277.625 724.1688,276.5547 Q723.4813,275.4844 723.4813,274.2031 L723.4813,273.0469 Q723.4813,271.7188 724.0984,270.5703 Q724.7156,269.4219 725.8094,268.8047 Q726.9031,268.1875 728.1375,268.1875 Q728.8719,268.1875 729.5203,268.3516 Q730.1688,268.5156 730.7156,268.875 Z " fill="#000000"/><text fill="#000000" font-family="sans-serif" font-size="14" lengthAdjust="spacing" textLength="62" x="746.05" y="278.7285">formtypes</text><line style="stroke:#181818;stroke-width:0.5;" x1="695.5" x2="828.5" y1="289" y2="289"/><rect fill="none" height="6" style="stroke:#C82930;stroke-width:1.0;" width="6" x="702.5" y="300.3047"/><text fill="#000000" font-family="sans-serif" font-size="14" lengthAdjust="spacing" textLength="46" x="714.5" y="307.5332">UUID id</text><rect fill="none" height="6" style="stroke:#C82930;stroke-width:1.0;" width="6" x="702.5" y="317.9141"/><text fill="#000000" font-family="sans-serif" font-size="14" lengthAdjust="spacing" textLength="109" x="714.5" y="325.1426">UUID category_id</text><rect fill="none" height="6" style="stroke:#C82930;stroke-width:1.0;" width="6" x="702.5" y="335.5234"/><text fill="#000000" font-family="sans-serif" font-size="14" lengthAdjust="spacing" textLength="76" x="714.5" y="342.752">String name</text><rect fill="none" height="6" style="stroke:#C82930;stroke-width:1.0;" width="6" x="702.5" y="353.1328"/><text fill="#000000" font-family="sans-serif" font-size="14" lengthAdjust="spacing" textLength="100" x="714.5" y="360.3613">String name_en</text><line style="stroke:#181818;stroke-width:0.5;" x1="695.5" x2="828.5" y1="367.4375" y2="367.4375"/></g><!--class formcategories--><g id="elem_formcategories"><rect codeLine="44" fill="#F1F1F1" height="100.8281" id="formcategories" rx="2.5" ry="2.5" style="stroke:#181818;stroke-width:0.5;" width="126" x="699" y="33.5"/><ellipse cx="714" cy="49.5" fill="#ADD1B2" rx="11" ry="11" style="stroke:#181818;stroke-width:1.0;"/><path d="M716.7656,45.375 Q716.9219,45.1563 717.1094,45.0469 Q717.2969,44.9375 717.5156,44.9375 Q717.8906,44.9375 718.125,45.1953 Q718.3594,45.4531 718.3594,46.0625 L718.3594,47.5156 Q718.3594,48.125 718.125,48.3906 Q717.8906,48.6563 717.5156,48.6563 Q717.1719,48.6563 716.9688,48.4531 Q716.7656,48.2656 716.6563,47.75 Q716.6094,47.3906 716.4219,47.2031 Q716.0938,46.8281 715.4844,46.6094 Q714.875,46.3906 714.25,46.3906 Q713.4844,46.3906 712.8516,46.7188 Q712.2188,47.0469 711.7266,47.7969 Q711.2344,48.5469 711.2344,49.5781 L711.2344,50.6719 Q711.2344,51.9063 712.125,52.7266 Q713.0156,53.5469 714.6094,53.5469 Q715.5469,53.5469 716.2031,53.2969 Q716.5938,53.1406 717.0156,52.7031 Q717.2813,52.4375 717.4297,52.3594 Q717.5781,52.2813 717.7813,52.2813 Q718.1094,52.2813 718.3672,52.5391 Q718.625,52.7969 718.625,53.1406 Q718.625,53.4844 718.2813,53.8906 Q717.7813,54.4688 716.9844,54.7969 Q715.9063,55.25 714.6094,55.25 Q713.0938,55.25 711.8906,54.625 Q710.9063,54.125 710.2188,53.0547 Q709.5313,51.9844 709.5313,50.7031 L709.5313,49.5469 Q709.5313,48.2188 710.1484,47.0703 Q710.7656,45.9219 711.8594,45.3047 Q712.9531,44.6875 714.1875,44.6875 Q714.9219,44.6875 715.5703,44.8516 Q716.2188,45.0156 716.7656,45.375 Z " fill="#000000"/><text fill="#000000" font-family="sans-serif" font-size="14" lengthAdjust="spacing" textLength="94" x="728" y="55.2285">formcategories</text><line style="stroke:#181818;stroke-width:0.5;" x1="700" x2="824" y1="65.5" y2="65.5"/><rect fill="none" height="6" style="stroke:#C82930;stroke-width:1.0;" width="6" x="707" y="76.8047"/><text fill="#000000" font-family="sans-serif" font-size="14" lengthAdjust="spacing" textLength="46" x="719" y="84.0332">UUID id</text><rect fill="none" height="6" style="stroke:#C82930;stroke-width:1.0;" width="6" x="707" y="94.4141"/><text fill="#000000" font-family="sans-serif" font-size="14" lengthAdjust="spacing" textLength="76" x="719" y="101.6426">String name</text><rect fill="none" height="6" style="stroke:#C82930;stroke-width:1.0;" width="6" x="707" y="112.0234"/><text fill="#000000" font-family="sans-serif" font-size="14" lengthAdjust="spacing" textLength="100" x="719" y="119.252">String name_en</text><line style="stroke:#181818;stroke-width:0.5;" x1="700" x2="824" y1="126.3281" y2="126.3281"/></g><!--class formsections--><g id="elem_formsections"><rect codeLine="56" fill="#F1F1F1" height="188.875" id="formsections" rx="2.5" ry="2.5" style="stroke:#181818;stroke-width:0.5;" width="160" x="367" y="471"/><ellipse cx="403.6" cy="487" fill="#ADD1B2" rx="11" ry="11" style="stroke:#181818;stroke-width:1.0;"/><path d="M406.3656,482.875 Q406.5219,482.6563 406.7094,482.5469 Q406.8969,482.4375 407.1156,482.4375 Q407.4906,482.4375 407.725,482.6953 Q407.9594,482.9531 407.9594,483.5625 L407.9594,485.0156 Q407.9594,485.625 407.725,485.8906 Q407.4906,486.1563 407.1156,486.1563 Q406.7719,486.1563 406.5688,485.9531 Q406.3656,485.7656 406.2563,485.25 Q406.2094,484.8906 406.0219,484.7031 Q405.6938,484.3281 405.0844,484.1094 Q404.475,483.8906 403.85,483.8906 Q403.0844,483.8906 402.4516,484.2188 Q401.8188,484.5469 401.3266,485.2969 Q400.8344,486.0469 400.8344,487.0781 L400.8344,488.1719 Q400.8344,489.4063 401.725,490.2266 Q402.6156,491.0469 404.2094,491.0469 Q405.1469,491.0469 405.8031,490.7969 Q406.1938,490.6406 406.6156,490.2031 Q406.8813,489.9375 407.0297,489.8594 Q407.1781,489.7813 407.3813,489.7813 Q407.7094,489.7813 407.9672,490.0391 Q408.225,490.2969 408.225,490.6406 Q408.225,490.9844 407.8813,491.3906 Q407.3813,491.9688 406.5844,492.2969 Q405.5063,492.75 404.2094,492.75 Q402.6938,492.75 401.4906,492.125 Q400.5063,491.625 399.8188,490.5547 Q399.1313,489.4844 399.1313,488.2031 L399.1313,487.0469 Q399.1313,485.7188 399.7484,484.5703 Q400.3656,483.4219 401.4594,482.8047 Q402.5531,482.1875 403.7875,482.1875 Q404.5219,482.1875 405.1703,482.3516 Q405.8188,482.5156 406.3656,482.875 Z " fill="#000000"/><text fill="#000000" font-family="sans-serif" font-size="14" lengthAdjust="spacing" textLength="80" x="422.4" y="492.7285">formsections</text><line style="stroke:#181818;stroke-width:0.5;" x1="368" x2="526" y1="503" y2="503"/><rect fill="none" height="6" style="stroke:#C82930;stroke-width:1.0;" width="6" x="375" y="514.3047"/><text fill="#000000" font-family="sans-serif" font-size="14" lengthAdjust="spacing" textLength="46" x="387" y="521.5332">UUID id</text><rect fill="none" height="6" style="stroke:#C82930;stroke-width:1.0;" width="6" x="375" y="531.9141"/><text fill="#000000" font-family="sans-serif" font-size="14" lengthAdjust="spacing" textLength="113" x="387" y="539.1426">DateTime created</text><rect fill="none" height="6" style="stroke:#C82930;stroke-width:1.0;" width="6" x="375" y="549.5234"/><text fill="#000000" font-family="sans-serif" font-size="14" lengthAdjust="spacing" textLength="134" x="387" y="556.752">DateTime lastchange</text><rect fill="none" height="6" style="stroke:#C82930;stroke-width:1.0;" width="6" x="375" y="567.1328"/><text fill="#000000" font-family="sans-serif" font-size="14" lengthAdjust="spacing" textLength="76" x="387" y="574.3613">String name</text><rect fill="none" height="6" style="stroke:#C82930;stroke-width:1.0;" width="6" x="375" y="584.7422"/><text fill="#000000" font-family="sans-serif" font-size="14" lengthAdjust="spacing" textLength="53" x="387" y="591.9707">Int order</text><rect fill="none" height="6" style="stroke:#C82930;stroke-width:1.0;" width="6" x="375" y="602.3516"/><text fill="#000000" font-family="sans-serif" font-size="14" lengthAdjust="spacing" textLength="101" x="387" y="609.5801">UUID rbacobject</text><rect fill="none" height="6" style="stroke:#C82930;stroke-width:1.0;" width="6" x="375" y="619.9609"/><text fill="#000000" font-family="sans-serif" font-size="14" lengthAdjust="spacing" textLength="82" x="387" y="627.1895">UUID form_id</text><rect fill="none" height="6" style="stroke:#C82930;stroke-width:1.0;" width="6" x="375" y="637.5703"/><text fill="#000000" font-family="sans-serif" font-size="14" lengthAdjust="spacing" textLength="85" x="387" y="644.7988">UUID state_id</text><line style="stroke:#181818;stroke-width:0.5;" x1="368" x2="526" y1="651.875" y2="651.875"/></g><!--class formparts--><g id="elem_formparts"><rect codeLine="67" fill="#F1F1F1" height="188.875" id="formparts" rx="2.5" ry="2.5" style="stroke:#181818;stroke-width:0.5;" width="160" x="367" y="738"/><ellipse cx="412.75" cy="754" fill="#ADD1B2" rx="11" ry="11" style="stroke:#181818;stroke-width:1.0;"/><path d="M415.5156,749.875 Q415.6719,749.6563 415.8594,749.5469 Q416.0469,749.4375 416.2656,749.4375 Q416.6406,749.4375 416.875,749.6953 Q417.1094,749.9531 417.1094,750.5625 L417.1094,752.0156 Q417.1094,752.625 416.875,752.8906 Q416.6406,753.1563 416.2656,753.1563 Q415.9219,753.1563 415.7188,752.9531 Q415.5156,752.7656 415.4063,752.25 Q415.3594,751.8906 415.1719,751.7031 Q414.8438,751.3281 414.2344,751.1094 Q413.625,750.8906 413,750.8906 Q412.2344,750.8906 411.6016,751.2188 Q410.9688,751.5469 410.4766,752.2969 Q409.9844,753.0469 409.9844,754.0781 L409.9844,755.1719 Q409.9844,756.4063 410.875,757.2266 Q411.7656,758.0469 413.3594,758.0469 Q414.2969,758.0469 414.9531,757.7969 Q415.3438,757.6406 415.7656,757.2031 Q416.0313,756.9375 416.1797,756.8594 Q416.3281,756.7813 416.5313,756.7813 Q416.8594,756.7813 417.1172,757.0391 Q417.375,757.2969 417.375,757.6406 Q417.375,757.9844 417.0313,758.3906 Q416.5313,758.9688 415.7344,759.2969 Q414.6563,759.75 413.3594,759.75 Q411.8438,759.75 410.6406,759.125 Q409.6563,758.625 408.9688,757.5547 Q408.2813,756.4844 408.2813,755.2031 L408.2813,754.0469 Q408.2813,752.7188 408.8984,751.5703 Q409.5156,750.4219 410.6094,749.8047 Q411.7031,749.1875 412.9375,749.1875 Q413.6719,749.1875 414.3203,749.3516 Q414.9688,749.5156 415.5156,749.875 Z " fill="#000000"/><text fill="#000000" font-family="sans-serif" font-size="14" lengthAdjust="spacing" textLength="60" x="433.25" y="759.7285">formparts</text><line style="stroke:#181818;stroke-width:0.5;" x1="368" x2="526" y1="770" y2="770"/><rect fill="none" height="6" style="stroke:#C82930;stroke-width:1.0;" width="6" x="375" y="781.3047"/><text fill="#000000" font-family="sans-serif" font-size="14" lengthAdjust="spacing" textLength="46" x="387" y="788.5332">UUID id</text><rect fill="none" height="6" style="stroke:#C82930;stroke-width:1.0;" width="6" x="375" y="798.9141"/><text fill="#000000" font-family="sans-serif" font-size="14" lengthAdjust="spacing" textLength="113" x="387" y="806.1426">DateTime created</text><rect fill="none" height="6" style="stroke:#C82930;stroke-width:1.0;" width="6" x="375" y="816.5234"/><text fill="#000000" font-family="sans-serif" font-size="14" lengthAdjust="spacing" textLength="134" x="387" y="823.752">DateTime lastchange</text><rect fill="none" height="6" style="stroke:#C82930;stroke-width:1.0;" width="6" x="375" y="834.1328"/><text fill="#000000" font-family="sans-serif" font-size="14" lengthAdjust="spacing" textLength="76" x="387" y="841.3613">String name</text><rect fill="none" height="6" style="stroke:#C82930;stroke-width:1.0;" width="6" x="375" y="851.7422"/><text fill="#000000" font-family="sans-serif" font-size="14" lengthAdjust="spacing" textLength="53" x="387" y="858.9707">Int order</text><rect fill="none" height="6" style="stroke:#C82930;stroke-width:1.0;" width="6" x="375" y="869.3516"/><text fill="#000000" font-family="sans-serif" font-size="14" lengthAdjust="spacing" textLength="101" x="387" y="876.5801">UUID rbacobject</text><rect fill="none" height="6" style="stroke:#C82930;stroke-width:1.0;" width="6" x="375" y="886.9609"/><text fill="#000000" font-family="sans-serif" font-size="14" lengthAdjust="spacing" textLength="99" x="387" y="894.1895">UUID section_id</text><rect fill="none" height="6" style="stroke:#C82930;stroke-width:1.0;" width="6" x="375" y="904.5703"/><text fill="#000000" font-family="sans-serif" font-size="14" lengthAdjust="spacing" textLength="85" x="387" y="911.7988">UUID state_id</text><line style="stroke:#181818;stroke-width:0.5;" x1="368" x2="526" y1="918.875" y2="918.875"/></g><!--class formitems--><g id="elem_formitems"><rect codeLine="78" fill="#F1F1F1" height="224.0938" id="formitems" rx="2.5" ry="2.5" style="stroke:#181818;stroke-width:0.5;" width="160" x="367" y="1005"/><ellipse cx="412.25" cy="1021" fill="#ADD1B2" rx="11" ry="11" style="stroke:#181818;stroke-width:1.0;"/><path d="M415.0156,1016.875 Q415.1719,1016.6563 415.3594,1016.5469 Q415.5469,1016.4375 415.7656,1016.4375 Q416.1406,1016.4375 416.375,1016.6953 Q416.6094,1016.9531 416.6094,1017.5625 L416.6094,1019.0156 Q416.6094,1019.625 416.375,1019.8906 Q416.1406,1020.1563 415.7656,1020.1563 Q415.4219,1020.1563 415.2188,1019.9531 Q415.0156,1019.7656 414.9063,1019.25 Q414.8594,1018.8906 414.6719,1018.7031 Q414.3438,1018.3281 413.7344,1018.1094 Q413.125,1017.8906 412.5,1017.8906 Q411.7344,1017.8906 411.1016,1018.2188 Q410.4688,1018.5469 409.9766,1019.2969 Q409.4844,1020.0469 409.4844,1021.0781 L409.4844,1022.1719 Q409.4844,1023.4063 410.375,1024.2266 Q411.2656,1025.0469 412.8594,1025.0469 Q413.7969,1025.0469 414.4531,1024.7969 Q414.8438,1024.6406 415.2656,1024.2031 Q415.5313,1023.9375 415.6797,1023.8594 Q415.8281,1023.7813 416.0313,1023.7813 Q416.3594,1023.7813 416.6172,1024.0391 Q416.875,1024.2969 416.875,1024.6406 Q416.875,1024.9844 416.5313,1025.3906 Q416.0313,1025.9688 415.2344,1026.2969 Q414.1563,1026.75 412.8594,1026.75 Q411.3438,1026.75 410.1406,1026.125 Q409.1563,1025.625 408.4688,1024.5547 Q407.7813,1023.4844 407.7813,1022.2031 L407.7813,1021.0469 Q407.7813,1019.7188 408.3984,1018.5703 Q409.0156,1017.4219 410.1094,1016.8047 Q411.2031,1016.1875 412.4375,1016.1875 Q413.1719,1016.1875 413.8203,1016.3516 Q414.4688,1016.5156 415.0156,1016.875 Z " fill="#000000"/><text fill="#000000" font-family="sans-serif" font-size="14" lengthAdjust="spacing" textLength="61" x="432.75" y="1026.7285">formitems</text><line style="stroke:#181818;stroke-width:0.5;" x1="368" x2="526" y1="1037" y2="1037"/><rect fill="none" height="6" style="stroke:#C82930;stroke-width:1.0;" width="6" x="375" y="1048.3047"/><text fill="#000000" font-family="sans-serif" font-size="14" lengthAdjust="spacing" textLength="46" x="387" y="1055.5332">UUID id</text><rect fill="none" height="6" style="stroke:#C82930;stroke-width:1.0;" width="6" x="375" y="1065.9141"/><text fill="#000000" font-family="sans-serif" font-size="14" lengthAdjust="spacing" textLength="113" x="387" y="1073.1426">DateTime created</text><rect fill="none" height="6" style="stroke:#C82930;stroke-width:1.0;" width="6" x="375" y="1083.5234"/><text fill="#000000" font-family="sans-serif" font-size="14" lengthAdjust="spacing" textLength="134" x="387" y="1090.752">DateTime lastchange</text><rect fill="none" height="6" style="stroke:#C82930;stroke-width:1.0;" width="6" x="375" y="1101.1328"/><text fill="#000000" font-family="sans-serif" font-size="14" lengthAdjust="spacing" textLength="76" x="387" y="1108.3613">String name</text><rect fill="none" height="6" style="stroke:#C82930;stroke-width:1.0;" width="6" x="375" y="1118.7422"/><text fill="#000000" font-family="sans-serif" font-size="14" lengthAdjust="spacing" textLength="53" x="387" y="1125.9707">Int order</text><rect fill="none" height="6" style="stroke:#C82930;stroke-width:1.0;" width="6" x="375" y="1136.3516"/><text fill="#000000" font-family="sans-serif" font-size="14" lengthAdjust="spacing" textLength="69" x="387" y="1143.5801">UUID value</text><rect fill="none" height="6" style="stroke:#C82930;stroke-width:1.0;" width="6" x="375" y="1153.9609"/><text fill="#000000" font-family="sans-serif" font-size="14" lengthAdjust="spacing" textLength="101" x="387" y="1161.1895">UUID rbacobject</text><rect fill="none" height="6" style="stroke:#C82930;stroke-width:1.0;" width="6" x="375" y="1171.5703"/><text fill="#000000" font-family="sans-serif" font-size="14" lengthAdjust="spacing" textLength="79" x="387" y="1178.7988">UUID part_id</text><rect fill="none" height="6" style="stroke:#C82930;stroke-width:1.0;" width="6" x="375" y="1189.1797"/><text fill="#000000" font-family="sans-serif" font-size="14" lengthAdjust="spacing" textLength="85" x="387" y="1196.4082">UUID state_id</text><rect fill="none" height="6" style="stroke:#C82930;stroke-width:1.0;" width="6" x="375" y="1206.7891"/><text fill="#000000" font-family="sans-serif" font-size="14" lengthAdjust="spacing" textLength="81" x="387" y="1214.0176">UUID type_id</text><line style="stroke:#181818;stroke-width:0.5;" x1="368" x2="526" y1="1221.0938" y2="1221.0938"/></g><!--class formitemtypes--><g id="elem_formitemtypes"><rect codeLine="98" fill="#F1F1F1" height="136.0469" id="formitemtypes" rx="2.5" ry="2.5" style="stroke:#181818;stroke-width:0.5;" width="135" x="723.5" y="1049"/><ellipse cx="745.25" cy="1065" fill="#ADD1B2" rx="11" ry="11" style="stroke:#181818;stroke-width:1.0;"/><path d="M748.0156,1060.875 Q748.1719,1060.6563 748.3594,1060.5469 Q748.5469,1060.4375 748.7656,1060.4375 Q749.1406,1060.4375 749.375,1060.6953 Q749.6094,1060.9531 749.6094,1061.5625 L749.6094,1063.0156 Q749.6094,1063.625 749.375,1063.8906 Q749.1406,1064.1563 748.7656,1064.1563 Q748.4219,1064.1563 748.2188,1063.9531 Q748.0156,1063.7656 747.9063,1063.25 Q747.8594,1062.8906 747.6719,1062.7031 Q747.3438,1062.3281 746.7344,1062.1094 Q746.125,1061.8906 745.5,1061.8906 Q744.7344,1061.8906 744.1016,1062.2188 Q743.4688,1062.5469 742.9766,1063.2969 Q742.4844,1064.0469 742.4844,1065.0781 L742.4844,1066.1719 Q742.4844,1067.4063 743.375,1068.2266 Q744.2656,1069.0469 745.8594,1069.0469 Q746.7969,1069.0469 747.4531,1068.7969 Q747.8438,1068.6406 748.2656,1068.2031 Q748.5313,1067.9375 748.6797,1067.8594 Q748.8281,1067.7813 749.0313,1067.7813 Q749.3594,1067.7813 749.6172,1068.0391 Q749.875,1068.2969 749.875,1068.6406 Q749.875,1068.9844 749.5313,1069.3906 Q749.0313,1069.9688 748.2344,1070.2969 Q747.1563,1070.75 745.8594,1070.75 Q744.3438,1070.75 743.1406,1070.125 Q742.1563,1069.625 741.4688,1068.5547 Q740.7813,1067.4844 740.7813,1066.2031 L740.7813,1065.0469 Q740.7813,1063.7188 741.3984,1062.5703 Q742.0156,1061.4219 743.1094,1060.8047 Q744.2031,1060.1875 745.4375,1060.1875 Q746.1719,1060.1875 746.8203,1060.3516 Q747.4688,1060.5156 748.0156,1060.875 Z " fill="#000000"/><text fill="#000000" font-family="sans-serif" font-size="14" lengthAdjust="spacing" textLength="88" x="760.75" y="1070.7285">formitemtypes</text><line style="stroke:#181818;stroke-width:0.5;" x1="724.5" x2="857.5" y1="1081" y2="1081"/><rect fill="none" height="6" style="stroke:#C82930;stroke-width:1.0;" width="6" x="731.5" y="1092.3047"/><text fill="#000000" font-family="sans-serif" font-size="14" lengthAdjust="spacing" textLength="46" x="743.5" y="1099.5332">UUID id</text><rect fill="none" height="6" style="stroke:#C82930;stroke-width:1.0;" width="6" x="731.5" y="1109.9141"/><text fill="#000000" font-family="sans-serif" font-size="14" lengthAdjust="spacing" textLength="109" x="743.5" y="1117.1426">UUID category_id</text><rect fill="none" height="6" style="stroke:#C82930;stroke-width:1.0;" width="6" x="731.5" y="1127.5234"/><text fill="#000000" font-family="sans-serif" font-size="14" lengthAdjust="spacing" textLength="76" x="743.5" y="1134.752">String name</text><rect fill="none" height="6" style="stroke:#C82930;stroke-width:1.0;" width="6" x="731.5" y="1145.1328"/><text fill="#000000" font-family="sans-serif" font-size="14" lengthAdjust="spacing" textLength="77" x="743.5" y="1152.3613">String query</text><rect fill="none" height="6" style="stroke:#C82930;stroke-width:1.0;" width="6" x="731.5" y="1162.7422"/><text fill="#000000" font-family="sans-serif" font-size="14" lengthAdjust="spacing" textLength="91" x="743.5" y="1169.9707">String selector</text><line style="stroke:#181818;stroke-width:0.5;" x1="724.5" x2="857.5" y1="1177.0469" y2="1177.0469"/></g><!--class formitemcategories--><g id="elem_formitemcategories"><rect codeLine="106" fill="#F1F1F1" height="100.8281" id="formitemcategories" rx="2.5" ry="2.5" style="stroke:#181818;stroke-width:0.5;" width="152" x="715" y="782"/><ellipse cx="730" cy="798" fill="#ADD1B2" rx="11" ry="11" style="stroke:#181818;stroke-width:1.0;"/><path d="M732.7656,793.875 Q732.9219,793.6563 733.1094,793.5469 Q733.2969,793.4375 733.5156,793.4375 Q733.8906,793.4375 734.125,793.6953 Q734.3594,793.9531 734.3594,794.5625 L734.3594,796.0156 Q734.3594,796.625 734.125,796.8906 Q733.8906,797.1563 733.5156,797.1563 Q733.1719,797.1563 732.9688,796.9531 Q732.7656,796.7656 732.6563,796.25 Q732.6094,795.8906 732.4219,795.7031 Q732.0938,795.3281 731.4844,795.1094 Q730.875,794.8906 730.25,794.8906 Q729.4844,794.8906 728.8516,795.2188 Q728.2188,795.5469 727.7266,796.2969 Q727.2344,797.0469 727.2344,798.0781 L727.2344,799.1719 Q727.2344,800.4063 728.125,801.2266 Q729.0156,802.0469 730.6094,802.0469 Q731.5469,802.0469 732.2031,801.7969 Q732.5938,801.6406 733.0156,801.2031 Q733.2813,800.9375 733.4297,800.8594 Q733.5781,800.7813 733.7813,800.7813 Q734.1094,800.7813 734.3672,801.0391 Q734.625,801.2969 734.625,801.6406 Q734.625,801.9844 734.2813,802.3906 Q733.7813,802.9688 732.9844,803.2969 Q731.9063,803.75 730.6094,803.75 Q729.0938,803.75 727.8906,803.125 Q726.9063,802.625 726.2188,801.5547 Q725.5313,800.4844 725.5313,799.2031 L725.5313,798.0469 Q725.5313,796.7188 726.1484,795.5703 Q726.7656,794.4219 727.8594,793.8047 Q728.9531,793.1875 730.1875,793.1875 Q730.9219,793.1875 731.5703,793.3516 Q732.2188,793.5156 732.7656,793.875 Z " fill="#000000"/><text fill="#000000" font-family="sans-serif" font-size="14" lengthAdjust="spacing" textLength="120" x="744" y="803.7285">formitemcategories</text><line style="stroke:#181818;stroke-width:0.5;" x1="716" x2="866" y1="814" y2="814"/><rect fill="none" height="6" style="stroke:#C82930;stroke-width:1.0;" width="6" x="723" y="825.3047"/><text fill="#000000" font-family="sans-serif" font-size="14" lengthAdjust="spacing" textLength="46" x="735" y="832.5332">UUID id</text><rect fill="none" height="6" style="stroke:#C82930;stroke-width:1.0;" width="6" x="723" y="842.9141"/><text fill="#000000" font-family="sans-serif" font-size="14" lengthAdjust="spacing" textLength="76" x="735" y="850.1426">String name</text><rect fill="none" height="6" style="stroke:#C82930;stroke-width:1.0;" width="6" x="723" y="860.5234"/><text fill="#000000" font-family="sans-serif" font-size="14" lengthAdjust="spacing" textLength="100" x="735" y="867.752">String name_en</text><line style="stroke:#181818;stroke-width:0.5;" x1="716" x2="866" y1="874.8281" y2="874.8281"/></g><!--reverse link formhistories to forms--><g id="link_formhistories_forms"><path codeLine="31" d="M173.34,316 C232.82,316 307.49,316 366.9,316 " fill="none" id="formhistories-backto-forms" style="stroke:#181818;stroke-width:1.0;"/><polygon fill="#181818" points="167.34,316,176.34,320,172.34,316,176.34,312,167.34,316" style="stroke:#181818;stroke-width:1.0;"/><text fill="#000000" font-family="sans-serif" font-size="13" lengthAdjust="spacing" textLength="163" x="185.5" y="309.4951">submit a form to the system</text></g><!--reverse link formrequests to formhistories--><g id="link_formrequests_formhistories"><path codeLine="32" d="M87,167.27 C87,192.24 87,213.98 87,238.94 " fill="none" id="formrequests-backto-formhistories" style="stroke:#181818;stroke-width:1.0;"/><polygon fill="#181818" points="87,161.27,83,170.27,87,166.27,91,170.27,87,161.27" style="stroke:#181818;stroke-width:1.0;"/><text fill="#000000" font-family="sans-serif" font-size="13" lengthAdjust="spacing" textLength="159" x="88" y="205.4951">send request to the system</text></g><!--link forms to formtypes--><g id="link_forms_formtypes"><path codeLine="50" d="M527.3,316 C578.98,316 639.38,316 688.36,316 " fill="none" id="forms-to-formtypes" style="stroke:#181818;stroke-width:1.0;"/><polygon fill="#181818" points="694.36,316,685.36,312,689.36,316,685.36,320,694.36,316" style="stroke:#181818;stroke-width:1.0;"/><text fill="#000000" font-family="sans-serif" font-size="13" lengthAdjust="spacing" textLength="131" x="545.25" y="309.4951">determine form's types</text></g><!--reverse link formcategories to formtypes--><g id="link_formcategories_formtypes"><path codeLine="51" d="M762,140.62 C762,176.54 762,219.21 762,256.93 " fill="none" id="formcategories-backto-formtypes" style="stroke:#181818;stroke-width:1.0;"/><polygon fill="#181818" points="762,134.62,758,143.62,762,139.62,766,143.62,762,134.62" style="stroke:#181818;stroke-width:1.0;"/><text fill="#000000" font-family="sans-serif" font-size="13" lengthAdjust="spacing" textLength="134" x="763" y="205.4951">categorize form's types</text></g><!--reverse link forms to formsections--><g id="link_forms_formsections"><path codeLine="91" d="M447,399.28 C447,423.71 447,445.05 447,470.58 " fill="none" id="forms-backto-formsections" style="stroke:#181818;stroke-width:1.0;"/><polygon fill="#181818" points="447,393.28,443,402.28,447,398.28,451,402.28,447,393.28" style="stroke:#181818;stroke-width:1.0;"/><text fill="#000000" font-family="sans-serif" font-size="13" lengthAdjust="spacing" textLength="163" x="448" y="437.4951">all sections belong to a form</text></g><!--reverse link formsections to formparts--><g id="link_formsections_formparts"><path codeLine="92" d="M447,666.3 C447,691.46 447,712.67 447,737.82 " fill="none" id="formsections-backto-formparts" style="stroke:#181818;stroke-width:1.0;"/><polygon fill="#181818" points="447,660.3,443,669.3,447,665.3,451,669.3,447,660.3" style="stroke:#181818;stroke-width:1.0;"/><text fill="#000000" font-family="sans-serif" font-size="13" lengthAdjust="spacing" textLength="160" x="448" y="704.4951">all parts belong to a section</text></g><!--reverse link formparts to formitems--><g id="link_formparts_formitems"><path codeLine="93" d="M447,933.18 C447,958.07 447,979.2 447,1004.92 " fill="none" id="formparts-backto-formitems" style="stroke:#181818;stroke-width:1.0;"/><polygon fill="#181818" points="447,927.18,443,936.18,447,932.18,451,936.18,447,927.18" style="stroke:#181818;stroke-width:1.0;"/><text fill="#000000" font-family="sans-serif" font-size="13" lengthAdjust="spacing" textLength="143" x="448" y="971.4951">all items belong to a part</text></g><!--link formitems to formitemtypes--><g id="link_formitems_formitemtypes"><path codeLine="112" d="M527.22,1117 C586.78,1117 661.1,1117 717.41,1117 " fill="none" id="formitems-to-formitemtypes" style="stroke:#181818;stroke-width:1.0;"/><polygon fill="#181818" points="723.41,1117,714.41,1113,718.41,1117,714.41,1121,723.41,1117" style="stroke:#181818;stroke-width:1.0;"/><text fill="#000000" font-family="sans-serif" font-size="13" lengthAdjust="spacing" textLength="160" x="545.25" y="1110.4951">determine form item's types</text></g><!--reverse link formitemcategories to formitemtypes--><g id="link_formitemcategories_formitemtypes"><path codeLine="113" d="M791,889.03 C791,935.08 791,998.04 791,1048.99 " fill="none" id="formitemcategories-backto-formitemtypes" style="stroke:#181818;stroke-width:1.0;"/><polygon fill="#181818" points="791,883.03,787,892.03,791,888.03,795,892.03,791,883.03" style="stroke:#181818;stroke-width:1.0;"/><text fill="#000000" font-family="sans-serif" font-size="13" lengthAdjust="spacing" textLength="163" x="792" y="971.4951">categorize form item's types</text></g><!--SRC=[nLGzRuCm4DtzAxmnyGSwT8egPQlQPeuCN8Whi5FRLA9L_tlF7u0TqYP3I9ZWpk_k_ExniconXsGlyD61DeIK3TEQxgHgbG_fRqBnoJURzOhood-ic84ttW8j5U3hSHHhc7BFH0q-yMeK5pKLh8Mec2fOAOjtA4qKr0QBRB7FJppBdciZ5OS5X_6ttGv5NT2sdiroHq9SUveti3FvOqeCVQ2wArfkA7C9QYGrUw2wrmPQafxDkqF03qksS13LGCCHccHBQk_9tQh4QzOutXSpN8gOSDCVJY_UVGHSFsvkncqKs898bpbqFTtWWb9X9OhN-s4dRbuaj083gkK2N3JJr2N8T6HQmpG6uaOcZe3BRk6PAPI1t0Nz98f7HU9E5X7-MXWgLGNgt7ym_8ldhE9Wxt7NIGDTbmpByU-wsR2VhEdEsesbxu_9fv3LOsn9GH-HeAsEMTFGCLL08t52z9MWht5NCMeuxS4-7IF30J9o5u7zQO_qkHXfipVmCTVv7o-pwIlv6HgrwfE8XWRvaMgkiQlON20yjhhnEZExSqGadZUTdNQMpZRtlgJABm00]--></g></svg>