<svg xmlns="http://www.w3.org/2000/svg" xmlns:xlink="http://www.w3.org/1999/xlink" contentStyleType="text/css" height="1181px" preserveAspectRatio="none" style="width:1048px;height:1181px;background:#FFFFFF;" version="1.1" viewBox="0 0 1048 1181" width="1048px" zoomAndPan="magnify"><defs/><g><!--class formrequests--><g id="elem_formrequests"><rect codeLine="4" fill="#F1F1F1" height="145.7813" id="formrequests" rx="2.5" ry="2.5" style="stroke:#181818;stroke-width:0.5;" width="175.3789" x="7" y="7"/><ellipse cx="44.3523" cy="23" fill="#ADD1B2" rx="11" ry="11" style="stroke:#181818;stroke-width:1.0;"/><path d="M47.3211,28.6406 Q46.743,28.9375 46.1023,29.0781 Q45.4617,29.2344 44.7586,29.2344 Q42.2586,29.2344 40.9305,27.5938 Q39.618,25.9375 39.618,22.8125 Q39.618,19.6875 40.9305,18.0313 Q42.2586,16.375 44.7586,16.375 Q45.4617,16.375 46.1023,16.5313 Q46.7586,16.6875 47.3211,16.9844 L47.3211,19.7031 Q46.6961,19.125 46.1023,18.8594 Q45.5086,18.5781 44.8836,18.5781 Q43.5398,18.5781 42.8523,19.6563 Q42.1648,20.7188 42.1648,22.8125 Q42.1648,24.9063 42.8523,25.9844 Q43.5398,27.0469 44.8836,27.0469 Q45.5086,27.0469 46.1023,26.7813 Q46.6961,26.5 47.3211,25.9219 L47.3211,28.6406 Z " fill="#000000"/><text fill="#000000" font-family="sans-serif" font-size="14" lengthAdjust="spacing" textLength="93.707" x="63.3195" y="27.8467">formrequests</text><line style="stroke:#181818;stroke-width:0.5;" x1="8" x2="181.3789" y1="39" y2="39"/><rect fill="none" height="6" style="stroke:#C82930;stroke-width:1.0;" width="6" x="15" y="49.6484"/><text fill="#000000" font-family="sans-serif" font-size="14" lengthAdjust="spacing" textLength="52.6299" x="27" y="55.9951">UUID id</text><rect fill="none" height="6" style="stroke:#C82930;stroke-width:1.0;" width="6" x="15" y="65.9453"/><text fill="#000000" font-family="sans-serif" font-size="14" lengthAdjust="spacing" textLength="126.2393" x="27" y="72.292">DateTime created</text><rect fill="none" height="6" style="stroke:#C82930;stroke-width:1.0;" width="6" x="15" y="82.2422"/><text fill="#000000" font-family="sans-serif" font-size="14" lengthAdjust="spacing" textLength="149.3789" x="27" y="88.5889">DateTime lastchange</text><rect fill="none" height="6" style="stroke:#C82930;stroke-width:1.0;" width="6" x="15" y="98.5391"/><text fill="#000000" font-family="sans-serif" font-size="14" lengthAdjust="spacing" textLength="85.9346" x="27" y="104.8857">String name</text><rect fill="none" height="6" style="stroke:#C82930;stroke-width:1.0;" width="6" x="15" y="114.8359"/><text fill="#000000" font-family="sans-serif" font-size="14" lengthAdjust="spacing" textLength="113.9141" x="27" y="121.1826">UUID rbacobject</text><rect fill="none" height="6" style="stroke:#C82930;stroke-width:1.0;" width="6" x="15" y="131.1328"/><text fill="#000000" font-family="sans-serif" font-size="14" lengthAdjust="spacing" textLength="95.0947" x="27" y="137.4795">UUID state_id</text><line style="stroke:#181818;stroke-width:0.5;" x1="8" x2="181.3789" y1="144.7813" y2="144.7813"/></g><!--class formhistories--><g id="elem_formhistories"><rect codeLine="13" fill="#F1F1F1" height="145.7813" id="formhistories" rx="2.5" ry="2.5" style="stroke:#181818;stroke-width:0.5;" width="175.3789" x="7" y="229.78"/><ellipse cx="44.8722" cy="245.78" fill="#ADD1B2" rx="11" ry="11" style="stroke:#181818;stroke-width:1.0;"/><path d="M47.841,251.4206 Q47.2628,251.7175 46.6222,251.8581 Q45.9816,252.0144 45.2785,252.0144 Q42.7785,252.0144 41.4503,250.3737 Q40.1378,248.7175 40.1378,245.5925 Q40.1378,242.4675 41.4503,240.8112 Q42.7785,239.155 45.2785,239.155 Q45.9816,239.155 46.6222,239.3112 Q47.2785,239.4675 47.841,239.7644 L47.841,242.4831 Q47.216,241.905 46.6222,241.6394 Q46.0285,241.3581 45.4035,241.3581 Q44.0597,241.3581 43.3722,242.4362 Q42.6847,243.4987 42.6847,245.5925 Q42.6847,247.6862 43.3722,248.7644 Q44.0597,249.8269 45.4035,249.8269 Q46.0285,249.8269 46.6222,249.5612 Q47.216,249.28 47.841,248.7019 L47.841,251.4206 Z " fill="#000000"/><text fill="#000000" font-family="sans-serif" font-size="14" lengthAdjust="spacing" textLength="92.5518" x="63.9549" y="250.6267">formhistories</text><line style="stroke:#181818;stroke-width:0.5;" x1="8" x2="181.3789" y1="261.78" y2="261.78"/><rect fill="none" height="6" style="stroke:#C82930;stroke-width:1.0;" width="6" x="15" y="272.4284"/><text fill="#000000" font-family="sans-serif" font-size="14" lengthAdjust="spacing" textLength="52.6299" x="27" y="278.7751">UUID id</text><rect fill="none" height="6" style="stroke:#C82930;stroke-width:1.0;" width="6" x="15" y="288.7253"/><text fill="#000000" font-family="sans-serif" font-size="14" lengthAdjust="spacing" textLength="126.2393" x="27" y="295.072">DateTime created</text><rect fill="none" height="6" style="stroke:#C82930;stroke-width:1.0;" width="6" x="15" y="305.0222"/><text fill="#000000" font-family="sans-serif" font-size="14" lengthAdjust="spacing" textLength="149.3789" x="27" y="311.3689">DateTime lastchange</text><rect fill="none" height="6" style="stroke:#C82930;stroke-width:1.0;" width="6" x="15" y="321.3191"/><text fill="#000000" font-family="sans-serif" font-size="14" lengthAdjust="spacing" textLength="85.9346" x="27" y="327.6657">String name</text><rect fill="none" height="6" style="stroke:#C82930;stroke-width:1.0;" width="6" x="15" y="337.6159"/><text fill="#000000" font-family="sans-serif" font-size="14" lengthAdjust="spacing" textLength="113.1553" x="27" y="343.9626">UUID request_id</text><rect fill="none" height="6" style="stroke:#C82930;stroke-width:1.0;" width="6" x="15" y="353.9128"/><text fill="#000000" font-family="sans-serif" font-size="14" lengthAdjust="spacing" textLength="92.5176" x="27" y="360.2595">UUID form_id</text><line style="stroke:#181818;stroke-width:0.5;" x1="8" x2="181.3789" y1="367.5613" y2="367.5613"/></g><!--class forms--><g id="elem_forms"><rect codeLine="22" fill="#F1F1F1" height="145.7813" id="forms" rx="2.5" ry="2.5" style="stroke:#181818;stroke-width:0.5;" width="175.3789" x="321" y="229.78"/><ellipse cx="384.3486" cy="245.78" fill="#ADD1B2" rx="11" ry="11" style="stroke:#181818;stroke-width:1.0;"/><path d="M387.3174,251.4206 Q386.7393,251.7175 386.0986,251.8581 Q385.458,252.0144 384.7549,252.0144 Q382.2549,252.0144 380.9268,250.3737 Q379.6143,248.7175 379.6143,245.5925 Q379.6143,242.4675 380.9268,240.8112 Q382.2549,239.155 384.7549,239.155 Q385.458,239.155 386.0986,239.3112 Q386.7549,239.4675 387.3174,239.7644 L387.3174,242.4831 Q386.6924,241.905 386.0986,241.6394 Q385.5049,241.3581 384.8799,241.3581 Q383.5361,241.3581 382.8486,242.4362 Q382.1611,243.4987 382.1611,245.5925 Q382.1611,247.6862 382.8486,248.7644 Q383.5361,249.8269 384.8799,249.8269 Q385.5049,249.8269 386.0986,249.5612 Q386.6924,249.28 387.3174,248.7019 L387.3174,251.4206 Z " fill="#000000"/><text fill="#000000" font-family="sans-serif" font-size="14" lengthAdjust="spacing" textLength="40.1816" x="404.8486" y="250.6267">forms</text><line style="stroke:#181818;stroke-width:0.5;" x1="322" x2="495.3789" y1="261.78" y2="261.78"/><rect fill="none" height="6" style="stroke:#C82930;stroke-width:1.0;" width="6" x="329" y="272.4284"/><text fill="#000000" font-family="sans-serif" font-size="14" lengthAdjust="spacing" textLength="52.6299" x="341" y="278.7751">UUID id</text><rect fill="none" height="6" style="stroke:#C82930;stroke-width:1.0;" width="6" x="329" y="288.7253"/><text fill="#000000" font-family="sans-serif" font-size="14" lengthAdjust="spacing" textLength="126.2393" x="341" y="295.072">DateTime created</text><rect fill="none" height="6" style="stroke:#C82930;stroke-width:1.0;" width="6" x="329" y="305.0222"/><text fill="#000000" font-family="sans-serif" font-size="14" lengthAdjust="spacing" textLength="149.3789" x="341" y="311.3689">DateTime lastchange</text><rect fill="none" height="6" style="stroke:#C82930;stroke-width:1.0;" width="6" x="329" y="321.3191"/><text fill="#000000" font-family="sans-serif" font-size="14" lengthAdjust="spacing" textLength="85.9346" x="341" y="327.6657">String name</text><rect fill="none" height="6" style="stroke:#C82930;stroke-width:1.0;" width="6" x="329" y="337.6159"/><text fill="#000000" font-family="sans-serif" font-size="14" lengthAdjust="spacing" textLength="113.9141" x="341" y="343.9626">UUID rbacobject</text><rect fill="none" height="6" style="stroke:#C82930;stroke-width:1.0;" width="6" x="329" y="353.9128"/><text fill="#000000" font-family="sans-serif" font-size="14" lengthAdjust="spacing" textLength="95.0947" x="341" y="360.2595">UUID state_id</text><line style="stroke:#181818;stroke-width:0.5;" x1="322" x2="495.3789" y1="367.5613" y2="367.5613"/></g><!--class formtypes--><g id="elem_formtypes"><rect codeLine="37" fill="#F1F1F1" height="113.1875" id="formtypes" rx="2.5" ry="2.5" style="stroke:#181818;stroke-width:0.5;" width="147.502" x="703.94" y="246.08"/><ellipse cx="738.7607" cy="262.08" fill="#ADD1B2" rx="11" ry="11" style="stroke:#181818;stroke-width:1.0;"/><path d="M741.7294,267.7206 Q741.1513,268.0175 740.5107,268.1581 Q739.87,268.3144 739.1669,268.3144 Q736.6669,268.3144 735.3388,266.6737 Q734.0263,265.0175 734.0263,261.8925 Q734.0263,258.7675 735.3388,257.1112 Q736.6669,255.455 739.1669,255.455 Q739.87,255.455 740.5107,255.6112 Q741.1669,255.7675 741.7294,256.0644 L741.7294,258.7831 Q741.1044,258.205 740.5107,257.9394 Q739.9169,257.6581 739.2919,257.6581 Q737.9482,257.6581 737.2607,258.7362 Q736.5732,259.7987 736.5732,261.8925 Q736.5732,263.9862 737.2607,265.0644 Q737.9482,266.1269 739.2919,266.1269 Q739.9169,266.1269 740.5107,265.8612 Q741.1044,265.58 741.7294,265.0019 L741.7294,267.7206 Z " fill="#000000"/><text fill="#000000" font-family="sans-serif" font-size="14" lengthAdjust="spacing" textLength="71.4561" x="757.1652" y="266.9267">formtypes</text><line style="stroke:#181818;stroke-width:0.5;" x1="704.94" x2="850.442" y1="278.08" y2="278.08"/><rect fill="none" height="6" style="stroke:#C82930;stroke-width:1.0;" width="6" x="711.94" y="288.7284"/><text fill="#000000" font-family="sans-serif" font-size="14" lengthAdjust="spacing" textLength="52.6299" x="723.94" y="295.0751">UUID id</text><rect fill="none" height="6" style="stroke:#C82930;stroke-width:1.0;" width="6" x="711.94" y="305.0253"/><text fill="#000000" font-family="sans-serif" font-size="14" lengthAdjust="spacing" textLength="121.502" x="723.94" y="311.372">UUID category_id</text><rect fill="none" height="6" style="stroke:#C82930;stroke-width:1.0;" width="6" x="711.94" y="321.3222"/><text fill="#000000" font-family="sans-serif" font-size="14" lengthAdjust="spacing" textLength="85.9346" x="723.94" y="327.6689">String name</text><rect fill="none" height="6" style="stroke:#C82930;stroke-width:1.0;" width="6" x="711.94" y="337.6191"/><text fill="#000000" font-family="sans-serif" font-size="14" lengthAdjust="spacing" textLength="110.4209" x="723.94" y="343.9657">String name_en</text><line style="stroke:#181818;stroke-width:0.5;" x1="704.94" x2="850.442" y1="351.2675" y2="351.2675"/></g><g id="elem_GMN10"><path d="M886.32,274.97 L886.32,298.67 L851.9,302.67 L886.32,306.67 L886.32,330.3684 A0,0 0 0 0 886.32,330.3684 L983.0666,330.3684 A0,0 0 0 0 983.0666,330.3684 L983.0666,284.97 L973.0666,274.97 L886.32,274.97 A0,0 0 0 0 886.32,274.97 " fill="#FEFFDD" style="stroke:#181818;stroke-width:0.5;"/><path d="M973.0666,274.97 L973.0666,284.97 L983.0666,284.97 L973.0666,274.97 " fill="#FEFFDD" style="stroke:#181818;stroke-width:0.5;"/><text fill="#000000" font-family="sans-serif" font-size="13" lengthAdjust="spacing" textLength="52.5967" x="892.32" y="292.0369">2 types:</text><text fill="#000000" font-family="sans-serif" font-size="13" lengthAdjust="spacing" textLength="53.771" x="892.32" y="307.1697">- &#381;&#225;dost</text><text fill="#000000" font-family="sans-serif" font-size="13" lengthAdjust="spacing" textLength="75.7466" x="892.32" y="322.3025">- Zad&#225;n&#237; DP</text></g><!--class formcategories--><g id="elem_formcategories"><rect codeLine="50" fill="#F1F1F1" height="96.8906" id="formcategories" rx="2.5" ry="2.5" style="stroke:#181818;stroke-width:0.5;" width="138.2715" x="708.55" y="31.44"/><ellipse cx="723.55" cy="47.44" fill="#ADD1B2" rx="11" ry="11" style="stroke:#181818;stroke-width:1.0;"/><path d="M726.5188,53.0806 Q725.9406,53.3775 725.3,53.5181 Q724.6594,53.6744 723.9563,53.6744 Q721.4563,53.6744 720.1281,52.0338 Q718.8156,50.3775 718.8156,47.2525 Q718.8156,44.1275 720.1281,42.4713 Q721.4563,40.815 723.9563,40.815 Q724.6594,40.815 725.3,40.9713 Q725.9563,41.1275 726.5188,41.4244 L726.5188,44.1431 Q725.8938,43.565 725.3,43.2994 Q724.7063,43.0181 724.0813,43.0181 Q722.7375,43.0181 722.05,44.0963 Q721.3625,45.1588 721.3625,47.2525 Q721.3625,49.3463 722.05,50.4244 Q722.7375,51.4869 724.0813,51.4869 Q724.7063,51.4869 725.3,51.2213 Q725.8938,50.94 726.5188,50.3619 L726.5188,53.0806 Z " fill="#000000"/><text fill="#000000" font-family="sans-serif" font-size="14" lengthAdjust="spacing" textLength="106.2715" x="737.55" y="52.2867">formcategories</text><line style="stroke:#181818;stroke-width:0.5;" x1="709.55" x2="845.8215" y1="63.44" y2="63.44"/><rect fill="none" height="6" style="stroke:#C82930;stroke-width:1.0;" width="6" x="716.55" y="74.0884"/><text fill="#000000" font-family="sans-serif" font-size="14" lengthAdjust="spacing" textLength="52.6299" x="728.55" y="80.4351">UUID id</text><rect fill="none" height="6" style="stroke:#C82930;stroke-width:1.0;" width="6" x="716.55" y="90.3853"/><text fill="#000000" font-family="sans-serif" font-size="14" lengthAdjust="spacing" textLength="85.9346" x="728.55" y="96.732">String name</text><rect fill="none" height="6" style="stroke:#C82930;stroke-width:1.0;" width="6" x="716.55" y="106.6822"/><text fill="#000000" font-family="sans-serif" font-size="14" lengthAdjust="spacing" textLength="110.4209" x="728.55" y="113.0289">String name_en</text><line style="stroke:#181818;stroke-width:0.5;" x1="709.55" x2="845.8215" y1="120.3306" y2="120.3306"/></g><g id="elem_GMN14"><path d="M881.74,52.19 L881.74,75.89 L846.98,79.89 L881.74,83.89 L881.74,107.5884 A0,0 0 0 0 881.74,107.5884 L1035.6472,107.5884 A0,0 0 0 0 1035.6472,107.5884 L1035.6472,62.19 L1025.6472,52.19 L881.74,52.19 A0,0 0 0 0 881.74,52.19 " fill="#FEFFDD" style="stroke:#181818;stroke-width:0.5;"/><path d="M1025.6472,52.19 L1025.6472,62.19 L1035.6472,62.19 L1025.6472,52.19 " fill="#FEFFDD" style="stroke:#181818;stroke-width:0.5;"/><text fill="#000000" font-family="sans-serif" font-size="13" lengthAdjust="spacing" textLength="84.9253" x="887.74" y="69.2569">2 categories:</text><text fill="#000000" font-family="sans-serif" font-size="13" lengthAdjust="spacing" textLength="132.9072" x="887.74" y="84.3897">- Studentsk&#233; &#382;&#225;dosti</text><text fill="#000000" font-family="sans-serif" font-size="13" lengthAdjust="spacing" textLength="55.8403" x="887.74" y="99.5225">- Ostatn&#237;</text></g><!--class formsections--><g id="elem_formsections"><rect codeLine="68" fill="#F1F1F1" height="178.375" id="formsections" rx="2.5" ry="2.5" style="stroke:#181818;stroke-width:0.5;" width="175.3789" x="321" y="452.56"/><ellipse cx="359.7489" cy="468.56" fill="#ADD1B2" rx="11" ry="11" style="stroke:#181818;stroke-width:1.0;"/><path d="M362.7177,474.2006 Q362.1396,474.4975 361.4989,474.6381 Q360.8583,474.7944 360.1552,474.7944 Q357.6552,474.7944 356.3271,473.1537 Q355.0146,471.4975 355.0146,468.3725 Q355.0146,465.2475 356.3271,463.5912 Q357.6552,461.935 360.1552,461.935 Q360.8583,461.935 361.4989,462.0912 Q362.1552,462.2475 362.7177,462.5444 L362.7177,465.2631 Q362.0927,464.685 361.4989,464.4194 Q360.9052,464.1381 360.2802,464.1381 Q358.9364,464.1381 358.2489,465.2162 Q357.5614,466.2787 357.5614,468.3725 Q357.5614,470.4662 358.2489,471.5444 Q358.9364,472.6069 360.2802,472.6069 Q360.9052,472.6069 361.4989,472.3412 Q362.0927,472.06 362.7177,471.4819 L362.7177,474.2006 Z " fill="#000000"/><text fill="#000000" font-family="sans-serif" font-size="14" lengthAdjust="spacing" textLength="90.6035" x="379.0265" y="473.4067">formsections</text><line style="stroke:#181818;stroke-width:0.5;" x1="322" x2="495.3789" y1="484.56" y2="484.56"/><rect fill="none" height="6" style="stroke:#C82930;stroke-width:1.0;" width="6" x="329" y="495.2084"/><text fill="#000000" font-family="sans-serif" font-size="14" lengthAdjust="spacing" textLength="52.6299" x="341" y="501.5551">UUID id</text><rect fill="none" height="6" style="stroke:#C82930;stroke-width:1.0;" width="6" x="329" y="511.5053"/><text fill="#000000" font-family="sans-serif" font-size="14" lengthAdjust="spacing" textLength="126.2393" x="341" y="517.852">DateTime created</text><rect fill="none" height="6" style="stroke:#C82930;stroke-width:1.0;" width="6" x="329" y="527.8022"/><text fill="#000000" font-family="sans-serif" font-size="14" lengthAdjust="spacing" textLength="149.3789" x="341" y="534.1489">DateTime lastchange</text><rect fill="none" height="6" style="stroke:#C82930;stroke-width:1.0;" width="6" x="329" y="544.0991"/><text fill="#000000" font-family="sans-serif" font-size="14" lengthAdjust="spacing" textLength="85.9346" x="341" y="550.4457">String name</text><rect fill="none" height="6" style="stroke:#C82930;stroke-width:1.0;" width="6" x="329" y="560.3959"/><text fill="#000000" font-family="sans-serif" font-size="14" lengthAdjust="spacing" textLength="60.5186" x="341" y="566.7426">Int order</text><rect fill="none" height="6" style="stroke:#C82930;stroke-width:1.0;" width="6" x="329" y="576.6928"/><text fill="#000000" font-family="sans-serif" font-size="14" lengthAdjust="spacing" textLength="113.9141" x="341" y="583.0395">UUID rbacobject</text><rect fill="none" height="6" style="stroke:#C82930;stroke-width:1.0;" width="6" x="329" y="592.9897"/><text fill="#000000" font-family="sans-serif" font-size="14" lengthAdjust="spacing" textLength="92.5176" x="341" y="599.3364">UUID form_id</text><rect fill="none" height="6" style="stroke:#C82930;stroke-width:1.0;" width="6" x="329" y="609.2866"/><text fill="#000000" font-family="sans-serif" font-size="14" lengthAdjust="spacing" textLength="95.0947" x="341" y="615.6332">UUID state_id</text><line style="stroke:#181818;stroke-width:0.5;" x1="322" x2="495.3789" y1="622.935" y2="622.935"/></g><!--class formparts--><g id="elem_formparts"><rect codeLine="79" fill="#F1F1F1" height="178.375" id="formparts" rx="2.5" ry="2.5" style="stroke:#181818;stroke-width:0.5;" width="175.3789" x="321" y="707.94"/><ellipse cx="369.9932" cy="723.94" fill="#ADD1B2" rx="11" ry="11" style="stroke:#181818;stroke-width:1.0;"/><path d="M372.9619,729.5806 Q372.3838,729.8775 371.7432,730.0181 Q371.1025,730.1744 370.3994,730.1744 Q367.8994,730.1744 366.5713,728.5338 Q365.2588,726.8775 365.2588,723.7525 Q365.2588,720.6275 366.5713,718.9713 Q367.8994,717.315 370.3994,717.315 Q371.1025,717.315 371.7432,717.4713 Q372.3994,717.6275 372.9619,717.9244 L372.9619,720.6431 Q372.3369,720.065 371.7432,719.7994 Q371.1494,719.5181 370.5244,719.5181 Q369.1807,719.5181 368.4932,720.5963 Q367.8057,721.6588 367.8057,723.7525 Q367.8057,725.8463 368.4932,726.9244 Q369.1807,727.9869 370.5244,727.9869 Q371.1494,727.9869 371.7432,727.7213 Q372.3369,727.44 372.9619,726.8619 L372.9619,729.5806 Z " fill="#000000"/><text fill="#000000" font-family="sans-serif" font-size="14" lengthAdjust="spacing" textLength="68.8926" x="390.4932" y="728.7867">formparts</text><line style="stroke:#181818;stroke-width:0.5;" x1="322" x2="495.3789" y1="739.94" y2="739.94"/><rect fill="none" height="6" style="stroke:#C82930;stroke-width:1.0;" width="6" x="329" y="750.5884"/><text fill="#000000" font-family="sans-serif" font-size="14" lengthAdjust="spacing" textLength="52.6299" x="341" y="756.9351">UUID id</text><rect fill="none" height="6" style="stroke:#C82930;stroke-width:1.0;" width="6" x="329" y="766.8853"/><text fill="#000000" font-family="sans-serif" font-size="14" lengthAdjust="spacing" textLength="126.2393" x="341" y="773.232">DateTime created</text><rect fill="none" height="6" style="stroke:#C82930;stroke-width:1.0;" width="6" x="329" y="783.1822"/><text fill="#000000" font-family="sans-serif" font-size="14" lengthAdjust="spacing" textLength="149.3789" x="341" y="789.5289">DateTime lastchange</text><rect fill="none" height="6" style="stroke:#C82930;stroke-width:1.0;" width="6" x="329" y="799.4791"/><text fill="#000000" font-family="sans-serif" font-size="14" lengthAdjust="spacing" textLength="85.9346" x="341" y="805.8257">String name</text><rect fill="none" height="6" style="stroke:#C82930;stroke-width:1.0;" width="6" x="329" y="815.7759"/><text fill="#000000" font-family="sans-serif" font-size="14" lengthAdjust="spacing" textLength="60.5186" x="341" y="822.1226">Int order</text><rect fill="none" height="6" style="stroke:#C82930;stroke-width:1.0;" width="6" x="329" y="832.0728"/><text fill="#000000" font-family="sans-serif" font-size="14" lengthAdjust="spacing" textLength="113.9141" x="341" y="838.4195">UUID rbacobject</text><rect fill="none" height="6" style="stroke:#C82930;stroke-width:1.0;" width="6" x="329" y="848.3697"/><text fill="#000000" font-family="sans-serif" font-size="14" lengthAdjust="spacing" textLength="110.0518" x="341" y="854.7164">UUID section_id</text><rect fill="none" height="6" style="stroke:#C82930;stroke-width:1.0;" width="6" x="329" y="864.6666"/><text fill="#000000" font-family="sans-serif" font-size="14" lengthAdjust="spacing" textLength="95.0947" x="341" y="871.0132">UUID state_id</text><line style="stroke:#181818;stroke-width:0.5;" x1="322" x2="495.3789" y1="878.315" y2="878.315"/></g><!--class formitems--><g id="elem_formitems"><rect codeLine="90" fill="#F1F1F1" height="210.9688" id="formitems" rx="2.5" ry="2.5" style="stroke:#181818;stroke-width:0.5;" width="175.3789" x="321" y="963.31"/><ellipse cx="368.5337" cy="979.31" fill="#ADD1B2" rx="11" ry="11" style="stroke:#181818;stroke-width:1.0;"/><path d="M371.5024,984.9506 Q370.9243,985.2475 370.2837,985.3881 Q369.6431,985.5444 368.9399,985.5444 Q366.4399,985.5444 365.1118,983.9038 Q363.7993,982.2475 363.7993,979.1225 Q363.7993,975.9975 365.1118,974.3413 Q366.4399,972.685 368.9399,972.685 Q369.6431,972.685 370.2837,972.8413 Q370.9399,972.9975 371.5024,973.2944 L371.5024,976.0131 Q370.8774,975.435 370.2837,975.1694 Q369.6899,974.8881 369.0649,974.8881 Q367.7212,974.8881 367.0337,975.9663 Q366.3462,977.0288 366.3462,979.1225 Q366.3462,981.2163 367.0337,982.2944 Q367.7212,983.3569 369.0649,983.3569 Q369.6899,983.3569 370.2837,983.0913 Q370.8774,982.81 371.5024,982.2319 L371.5024,984.9506 Z " fill="#000000"/><text fill="#000000" font-family="sans-serif" font-size="14" lengthAdjust="spacing" textLength="71.8115" x="389.0337" y="984.1567">formitems</text><line style="stroke:#181818;stroke-width:0.5;" x1="322" x2="495.3789" y1="995.31" y2="995.31"/><rect fill="none" height="6" style="stroke:#C82930;stroke-width:1.0;" width="6" x="329" y="1005.9584"/><text fill="#000000" font-family="sans-serif" font-size="14" lengthAdjust="spacing" textLength="52.6299" x="341" y="1012.3051">UUID id</text><rect fill="none" height="6" style="stroke:#C82930;stroke-width:1.0;" width="6" x="329" y="1022.2553"/><text fill="#000000" font-family="sans-serif" font-size="14" lengthAdjust="spacing" textLength="126.2393" x="341" y="1028.602">DateTime created</text><rect fill="none" height="6" style="stroke:#C82930;stroke-width:1.0;" width="6" x="329" y="1038.5522"/><text fill="#000000" font-family="sans-serif" font-size="14" lengthAdjust="spacing" textLength="149.3789" x="341" y="1044.8989">DateTime lastchange</text><rect fill="none" height="6" style="stroke:#C82930;stroke-width:1.0;" width="6" x="329" y="1054.8491"/><text fill="#000000" font-family="sans-serif" font-size="14" lengthAdjust="spacing" textLength="85.9346" x="341" y="1061.1957">String name</text><rect fill="none" height="6" style="stroke:#C82930;stroke-width:1.0;" width="6" x="329" y="1071.1459"/><text fill="#000000" font-family="sans-serif" font-size="14" lengthAdjust="spacing" textLength="60.5186" x="341" y="1077.4926">Int order</text><rect fill="none" height="6" style="stroke:#C82930;stroke-width:1.0;" width="6" x="329" y="1087.4428"/><text fill="#000000" font-family="sans-serif" font-size="14" lengthAdjust="spacing" textLength="78.0938" x="341" y="1093.7895">UUID value</text><rect fill="none" height="6" style="stroke:#C82930;stroke-width:1.0;" width="6" x="329" y="1103.7397"/><text fill="#000000" font-family="sans-serif" font-size="14" lengthAdjust="spacing" textLength="113.9141" x="341" y="1110.0864">UUID rbacobject</text><rect fill="none" height="6" style="stroke:#C82930;stroke-width:1.0;" width="6" x="329" y="1120.0366"/><text fill="#000000" font-family="sans-serif" font-size="14" lengthAdjust="spacing" textLength="88.3408" x="341" y="1126.3832">UUID part_id</text><rect fill="none" height="6" style="stroke:#C82930;stroke-width:1.0;" width="6" x="329" y="1136.3334"/><text fill="#000000" font-family="sans-serif" font-size="14" lengthAdjust="spacing" textLength="95.0947" x="341" y="1142.6801">UUID state_id</text><rect fill="none" height="6" style="stroke:#C82930;stroke-width:1.0;" width="6" x="329" y="1152.6303"/><text fill="#000000" font-family="sans-serif" font-size="14" lengthAdjust="spacing" textLength="90.9043" x="341" y="1158.977">UUID type_id</text><line style="stroke:#181818;stroke-width:0.5;" x1="322" x2="495.3789" y1="1166.2788" y2="1166.2788"/></g><!--class formitemtypes--><g id="elem_formitemtypes"><rect codeLine="110" fill="#F1F1F1" height="129.4844" id="formitemtypes" rx="2.5" ry="2.5" style="stroke:#181818;stroke-width:0.5;" width="147.502" x="741.94" y="1004.05"/><ellipse cx="762.5272" cy="1020.05" fill="#ADD1B2" rx="11" ry="11" style="stroke:#181818;stroke-width:1.0;"/><path d="M765.496,1025.6906 Q764.9178,1025.9875 764.2772,1026.1281 Q763.6366,1026.2844 762.9335,1026.2844 Q760.4335,1026.2844 759.1053,1024.6438 Q757.7928,1022.9875 757.7928,1019.8625 Q757.7928,1016.7375 759.1053,1015.0813 Q760.4335,1013.425 762.9335,1013.425 Q763.6366,1013.425 764.2772,1013.5813 Q764.9335,1013.7375 765.496,1014.0344 L765.496,1016.7531 Q764.871,1016.175 764.2772,1015.9094 Q763.6835,1015.6281 763.0585,1015.6281 Q761.7147,1015.6281 761.0272,1016.7063 Q760.3397,1017.7688 760.3397,1019.8625 Q760.3397,1021.9563 761.0272,1023.0344 Q761.7147,1024.0969 763.0585,1024.0969 Q763.6835,1024.0969 764.2772,1023.8313 Q764.871,1023.55 765.496,1022.9719 L765.496,1025.6906 Z " fill="#000000"/><text fill="#000000" font-family="sans-serif" font-size="14" lengthAdjust="spacing" textLength="103.0859" x="777.7688" y="1024.8967">formitemtypes</text><line style="stroke:#181818;stroke-width:0.5;" x1="742.94" x2="888.442" y1="1036.05" y2="1036.05"/><rect fill="none" height="6" style="stroke:#C82930;stroke-width:1.0;" width="6" x="749.94" y="1046.6984"/><text fill="#000000" font-family="sans-serif" font-size="14" lengthAdjust="spacing" textLength="52.6299" x="761.94" y="1053.0451">UUID id</text><rect fill="none" height="6" style="stroke:#C82930;stroke-width:1.0;" width="6" x="749.94" y="1062.9953"/><text fill="#000000" font-family="sans-serif" font-size="14" lengthAdjust="spacing" textLength="121.502" x="761.94" y="1069.342">UUID category_id</text><rect fill="none" height="6" style="stroke:#C82930;stroke-width:1.0;" width="6" x="749.94" y="1079.2922"/><text fill="#000000" font-family="sans-serif" font-size="14" lengthAdjust="spacing" textLength="85.9346" x="761.94" y="1085.6389">String name</text><rect fill="none" height="6" style="stroke:#C82930;stroke-width:1.0;" width="6" x="749.94" y="1095.5891"/><text fill="#000000" font-family="sans-serif" font-size="14" lengthAdjust="spacing" textLength="86.6455" x="761.94" y="1101.9357">String query</text><rect fill="none" height="6" style="stroke:#C82930;stroke-width:1.0;" width="6" x="749.94" y="1111.8859"/><text fill="#000000" font-family="sans-serif" font-size="14" lengthAdjust="spacing" textLength="102.1494" x="761.94" y="1118.2326">String selector</text><line style="stroke:#181818;stroke-width:0.5;" x1="742.94" x2="888.442" y1="1125.5344" y2="1125.5344"/></g><g id="elem_GMN30"><path d="M924.28,1025.96 L924.28,1064.8 L889.75,1068.8 L924.28,1072.8 L924.28,1111.6241 A0,0 0 0 0 924.28,1111.6241 L1027.0949,1111.6241 A0,0 0 0 0 1027.0949,1111.6241 L1027.0949,1035.96 L1017.0949,1025.96 L924.28,1025.96 A0,0 0 0 0 924.28,1025.96 " fill="#FEFFDD" style="stroke:#181818;stroke-width:0.5;"/><path d="M1017.0949,1025.96 L1017.0949,1035.96 L1027.0949,1035.96 L1017.0949,1025.96 " fill="#FEFFDD" style="stroke:#181818;stroke-width:0.5;"/><text fill="#000000" font-family="sans-serif" font-size="13" lengthAdjust="spacing" textLength="52.5967" x="930.28" y="1043.0269">4 types:</text><text fill="#000000" font-family="sans-serif" font-size="13" lengthAdjust="spacing" textLength="58.519" x="930.28" y="1058.1597">- student</text><text fill="#000000" font-family="sans-serif" font-size="13" lengthAdjust="spacing" textLength="64.6001" x="930.28" y="1073.2925">- program</text><text fill="#000000" font-family="sans-serif" font-size="13" lengthAdjust="spacing" textLength="48.0073" x="930.28" y="1088.4253">- obsah</text><text fill="#000000" font-family="sans-serif" font-size="13" lengthAdjust="spacing" textLength="81.8149" x="930.28" y="1103.5581">- doporu&#269;en&#237;</text></g><!--class formitemcategories--><g id="elem_formitemcategories"><rect codeLine="126" fill="#F1F1F1" height="96.8906" id="formitemcategories" rx="2.5" ry="2.5" style="stroke:#181818;stroke-width:0.5;" width="169.9014" x="730.74" y="748.68"/><ellipse cx="745.74" cy="764.68" fill="#ADD1B2" rx="11" ry="11" style="stroke:#181818;stroke-width:1.0;"/><path d="M748.7088,770.3206 Q748.1306,770.6175 747.49,770.7581 Q746.8494,770.9144 746.1463,770.9144 Q743.6463,770.9144 742.3181,769.2738 Q741.0056,767.6175 741.0056,764.4925 Q741.0056,761.3675 742.3181,759.7113 Q743.6463,758.055 746.1463,758.055 Q746.8494,758.055 747.49,758.2113 Q748.1463,758.3675 748.7088,758.6644 L748.7088,761.3831 Q748.0838,760.805 747.49,760.5394 Q746.8963,760.2581 746.2713,760.2581 Q744.9275,760.2581 744.24,761.3363 Q743.5525,762.3988 743.5525,764.4925 Q743.5525,766.5863 744.24,767.6644 Q744.9275,768.7269 746.2713,768.7269 Q746.8963,768.7269 747.49,768.4613 Q748.0838,768.18 748.7088,767.6019 L748.7088,770.3206 Z " fill="#000000"/><text fill="#000000" font-family="sans-serif" font-size="14" lengthAdjust="spacing" textLength="137.9014" x="759.74" y="769.5267">formitemcategories</text><line style="stroke:#181818;stroke-width:0.5;" x1="731.74" x2="899.6414" y1="780.68" y2="780.68"/><rect fill="none" height="6" style="stroke:#C82930;stroke-width:1.0;" width="6" x="738.74" y="791.3284"/><text fill="#000000" font-family="sans-serif" font-size="14" lengthAdjust="spacing" textLength="52.6299" x="750.74" y="797.6751">UUID id</text><rect fill="none" height="6" style="stroke:#C82930;stroke-width:1.0;" width="6" x="738.74" y="807.6253"/><text fill="#000000" font-family="sans-serif" font-size="14" lengthAdjust="spacing" textLength="85.9346" x="750.74" y="813.972">String name</text><rect fill="none" height="6" style="stroke:#C82930;stroke-width:1.0;" width="6" x="738.74" y="823.9222"/><text fill="#000000" font-family="sans-serif" font-size="14" lengthAdjust="spacing" textLength="110.4209" x="750.74" y="830.2689">String name_en</text><line style="stroke:#181818;stroke-width:0.5;" x1="731.74" x2="899.6414" y1="837.5706" y2="837.5706"/></g><g id="elem_GMN34"><path d="M935.73,769.42 L935.73,793.12 L900.84,797.12 L935.73,801.12 L935.73,824.8184 A0,0 0 0 0 935.73,824.8184 L1041.6553,824.8184 A0,0 0 0 0 1041.6553,824.8184 L1041.6553,779.42 L1031.6553,769.42 L935.73,769.42 A0,0 0 0 0 935.73,769.42 " fill="#FEFFDD" style="stroke:#181818;stroke-width:0.5;"/><path d="M1031.6553,769.42 L1031.6553,779.42 L1041.6553,779.42 L1031.6553,769.42 " fill="#FEFFDD" style="stroke:#181818;stroke-width:0.5;"/><text fill="#000000" font-family="sans-serif" font-size="13" lengthAdjust="spacing" textLength="84.9253" x="941.73" y="786.4869">2 categories:</text><text fill="#000000" font-family="sans-serif" font-size="13" lengthAdjust="spacing" textLength="37.5527" x="941.73" y="801.6197">- Text</text><text fill="#000000" font-family="sans-serif" font-size="13" lengthAdjust="spacing" textLength="63.4385" x="941.73" y="816.7525">- GQL_API</text></g><!--reverse link formhistories to forms--><g id="link_formhistories_forms"><path codeLine="31" d="M188.57,302.67 C231.66,302.67 277.43,302.67 320.55,302.67 " fill="none" id="formhistories-backto-forms" style="stroke:#181818;stroke-width:1.0;"/><polygon fill="#181818" points="182.57,302.67,191.57,306.67,187.57,302.67,191.57,298.67,182.57,302.67" style="stroke:#181818;stroke-width:1.0;"/><text fill="#000000" font-family="sans-serif" font-size="13" font-weight="bold" lengthAdjust="spacing" textLength="102.8828" x="200.69" y="295.7369">submit a form</text></g><!--reverse link formrequests to formhistories--><g id="link_formrequests_formhistories"><path codeLine="32" d="M94.69,159.18 C94.69,183.7 94.69,205.09 94.69,229.59 " fill="none" id="formrequests-backto-formhistories" style="stroke:#181818;stroke-width:1.0;"/><polygon fill="#181818" points="94.69,153.18,90.69,162.18,94.69,158.18,98.69,162.18,94.69,153.18" style="stroke:#181818;stroke-width:1.0;"/><text fill="#000000" font-family="sans-serif" font-size="13" font-weight="bold" lengthAdjust="spacing" textLength="109.4971" x="95.69" y="195.8469">send a request</text></g><!--link forms to formtypes--><g id="link_forms_formtypes"><path codeLine="62" d="M496.61,302.67 C559.7,302.67 637.79,302.67 697.51,302.67 " fill="none" id="forms-to-formtypes" style="stroke:#181818;stroke-width:1.0;"/><polygon fill="#181818" points="703.51,302.67,694.51,298.67,698.51,302.67,694.51,306.67,703.51,302.67" style="stroke:#181818;stroke-width:1.0;"/><text fill="#000000" font-family="sans-serif" font-size="13" font-weight="bold" lengthAdjust="spacing" textLength="171.501" x="514.66" y="295.7369">determine form's types</text></g><!--reverse link formcategories to formtypes--><g id="link_formcategories_formtypes"><path codeLine="63" d="M777.69,134.8 C777.69,169.16 777.69,209.58 777.69,245.67 " fill="none" id="formcategories-backto-formtypes" style="stroke:#181818;stroke-width:1.0;"/><polygon fill="#181818" points="777.69,128.8,773.69,137.8,777.69,133.8,781.69,137.8,777.69,128.8" style="stroke:#181818;stroke-width:1.0;"/><text fill="#000000" font-family="sans-serif" font-size="13" font-weight="bold" lengthAdjust="spacing" textLength="172.8594" x="778.69" y="195.8469">categorize form's types</text></g><!--reverse link forms to formsections--><g id="link_forms_formsections"><path codeLine="103" d="M408.69,381.77 C408.69,405.88 408.69,427.04 408.69,452.25 " fill="none" id="forms-backto-formsections" style="stroke:#181818;stroke-width:1.0;"/><polygon fill="#181818" points="408.69,375.77,404.69,384.77,408.69,380.77,412.69,384.77,408.69,375.77" style="stroke:#181818;stroke-width:1.0;"/><text fill="#000000" font-family="sans-serif" font-size="13" font-weight="bold" lengthAdjust="spacing" textLength="209.7012" x="409.69" y="418.6269">all sections belong to a form</text></g><!--reverse link formsections to formparts--><g id="link_formsections_formparts"><path codeLine="104" d="M408.69,637.37 C408.69,662.06 408.69,682.87 408.69,707.56 " fill="none" id="formsections-backto-formparts" style="stroke:#181818;stroke-width:1.0;"/><polygon fill="#181818" points="408.69,631.37,404.69,640.37,408.69,636.37,412.69,640.37,408.69,631.37" style="stroke:#181818;stroke-width:1.0;"/><text fill="#000000" font-family="sans-serif" font-size="13" font-weight="bold" lengthAdjust="spacing" textLength="205.8608" x="409.69" y="674.0069">all parts belong to a section</text></g><!--reverse link formparts to formitems--><g id="link_formparts_formitems"><path codeLine="105" d="M408.69,892.8 C408.69,917.21 408.69,937.91 408.69,963.13 " fill="none" id="formparts-backto-formitems" style="stroke:#181818;stroke-width:1.0;"/><polygon fill="#181818" points="408.69,886.8,404.69,895.8,408.69,891.8,412.69,895.8,408.69,886.8" style="stroke:#181818;stroke-width:1.0;"/><text fill="#000000" font-family="sans-serif" font-size="13" font-weight="bold" lengthAdjust="spacing" textLength="185.7769" x="409.69" y="929.3769">all items belong to a part</text></g><!--link formitems to formitemtypes--><g id="link_formitems_formitemtypes"><path codeLine="137" d="M496.75,1068.8 C569.91,1068.8 666.82,1068.8 735.76,1068.8 " fill="none" id="formitems-to-formitemtypes" style="stroke:#181818;stroke-width:1.0;"/><polygon fill="#181818" points="741.76,1068.8,732.76,1064.8,736.76,1068.8,732.76,1072.8,741.76,1068.8" style="stroke:#181818;stroke-width:1.0;"/><text fill="#000000" font-family="sans-serif" font-size="13" font-weight="bold" lengthAdjust="spacing" textLength="209.0601" x="514.66" y="1061.8669">determine form item's types</text></g><!--reverse link formitemcategories to formitemtypes--><g id="link_formitemcategories_formitemtypes"><path codeLine="138" d="M815.69,852.02 C815.69,895.92 815.69,955.24 815.69,1003.63 " fill="none" id="formitemcategories-backto-formitemtypes" style="stroke:#181818;stroke-width:1.0;"/><polygon fill="#181818" points="815.69,846.02,811.69,855.02,815.69,851.02,819.69,855.02,815.69,846.02" style="stroke:#181818;stroke-width:1.0;"/><text fill="#000000" font-family="sans-serif" font-size="13" font-weight="bold" lengthAdjust="spacing" textLength="210.4185" x="816.69" y="929.3769">categorize form item's types</text></g><!--SRC=[nLNDZjCm4BxdANoBLAaNn6aFI4WLg1BI5dRtmgLoacbgIEnWEuY2U0GUOeySU0Iub7qlnZz9x3PiLmlPxIaUpyytCv-_fkbaloHz0nzQK3f9yeegHJP2rjAPr9U4u6z-TRLS45Qumu9gk6Gra5m2VXvQCOVEjvINu2ukj6Iy99pM42IJ6Sr5zWvo7HYLnYHhhFCrnB9bIWl9O48mhjjrbzGQJUaZB8yu45kUp2lOwFcpU33aZCncgirgfWcrLxDP4dlCsyP7TQjrGS0B3F4sZ4hIAPdsmlQGOrCbmlfCDHCy7A_UDUDhjWSVj-ltT3J9mB06RgR6XGOYMRdLH6o66jRz2R7VPowMtFpSNnT2-VcJjxJON_Fz3x9O9MPA9bE8jUjY7F2ze0qfFRx1q86yq6q1NAlt- -_avfS3pFpTkQ4B8WxWUjBOAdx_jcUx_08qo9fniFPKkN5uwZYtWJO351lRx_0eU5e6hQX4wkAy7C-Zjubl1_aqoHDTSboIB42UUh6TQfmIjSRqyQX8_RZk0fPfg1yCx4TQjIU5qOplByW7as5aA9wU7m6f7PTfLP7-CeDA84OjOYMr-meZE_ykWNC8exsBJs1d62Hm_bsqkmsZpVs3wB6jVOicc-l_fClu9oDtaKL1XLCISbmF-z8svcairyefeJyrKfIIrluaCaMt_hiGZP3jxsyGAsFSuB-A-JZsE-Zv9NpgMdZv-jNw-MfveDwUDw62zsCPKN6xpGCf7_m7-iNmnYJz8DCV]--></g></svg>